<?xml version="1.0" encoding="UTF-8"?>
<svg id="Layer_2" data-name="Layer 2" xmlns="http://www.w3.org/2000/svg" viewBox="0 0 268.21 268.22">
  <defs>
    <style>
      .cls-1 {
        fill: #00ffeb;
      }
    </style>
  </defs>
  <g id="sprites">
    <g>
      <path class="cls-1" d="M106.35,129.99H39.86c-12.57-.25-24.08-6.14-31.69-16.25C.4,103.43-1.97,90.24,1.67,77.53c1.77-6.19,5.31-12.07,10.24-16.99,7.7-7.69,17.91-11.92,28.76-11.92h.03c1.13,0,2.28.05,3.42.15,1.34.11,2.59-.3,3.43-1.14.9-.9,1.32-2.16,1.21-3.51C46.88,21.88,63.43,2.16,85.67.17c22.34-2.02,42.14,14.54,44.15,36.88.11,1.19.16,2.4.16,3.6v65.71c0,13.03-10.6,23.63-23.63,23.63ZM41.4,114.81h64.94c4.66,0,8.45-3.79,8.45-8.45V40.65c0-.74-.03-1.5-.1-2.25-1.26-14-13.66-24.35-27.67-23.12-13.94,1.25-24.31,13.61-23.13,27.55.49,5.82-1.53,11.47-5.57,15.5-4.04,4.04-9.67,6.06-15.47,5.57-.72-.06-1.45-.09-2.17-.09h-.02c-6.8,0-13.2,2.65-18.01,7.45-3.12,3.12-5.33,6.73-6.39,10.45-2.31,8.08-.85,16.42,4.03,22.89,4.88,6.47,12.3,10.19,20.36,10.2h.75Z"/>
      <path class="cls-1" d="M89.32,266.42c-.59,0-1.18-.01-1.78-.04-21.65-.92-38.79-18.61-39.01-40.27v-.85s.17-.83.17-.83c.2-.95.07-1.95-.4-2.97-.63-1.37-2.25-2.19-4.02-2.02-13.67,1.22-27.02-4.56-35.7-15.46-3.11-3.9-5.41-8.32-6.83-13.13-3.95-13.31-1.07-27.52,7.7-38.01,6.96-8.34,16.76-13.47,27.58-14.43,1.18-.11,2.38-.16,3.57-.16h65.74c13.03,0,23.63,10.6,23.63,23.63v65.68c-.51,10.79-5.17,20.78-13.13,28.12h-.01c-7.58,6.97-17.29,10.75-27.52,10.75ZM63.73,226.64c.49,13.27,11.1,24,24.46,24.57,6.84.27,13.35-2.09,18.38-6.71,4.96-4.58,7.88-10.78,8.23-17.48v-65.15c0-4.66-3.79-8.45-8.45-8.45H40.62c-.74,0-1.5.04-2.24.1-6.78.61-12.91,3.82-17.28,9.04-5.58,6.69-7.33,15.42-4.8,23.96.86,2.89,2.29,5.65,4.15,7.99,5.57,7,13.77,10.58,22.47,9.8,8.13-.72,15.83,3.61,19.15,10.77,1.72,3.71,2.28,7.69,1.65,11.56Z"/>
      <path class="cls-1" d="M178.88,268.22c-20.8,0-38.59-15.93-40.49-37.04-.11-1.2-.16-2.41-.16-3.6v-65.72c0-13.03,10.6-23.63,23.63-23.63h65.69c7.9.06,15.27,2.16,21.42,6.06,12.06,7.65,19.25,20.61,19.24,34.65h0c-.02,22.42-18.27,40.65-40.68,40.65h-.03c-1.19,0-2.39-.06-3.57-.16-.73-.06-1.45.04-2.03.31-1.66.76-2.64,2.39-2.48,4.17.97,10.81-2.34,21.36-9.31,29.71-6.97,8.34-16.77,13.47-27.58,14.44-1.23.11-2.45.16-3.66.16ZM227.52,153.42h-65.66c-4.66,0-8.45,3.79-8.45,8.45v65.71c0,.74.03,1.5.1,2.25,1.25,13.99,13.66,24.35,27.67,23.11,6.77-.61,12.91-3.82,17.28-9.06s6.45-11.84,5.84-18.61c-.73-8.15,3.81-15.93,11.31-19.34,2.97-1.35,6.31-1.91,9.66-1.61.75.07,1.5.1,2.25.1h.02c14.05,0,25.48-11.43,25.49-25.48,0-8.95-4.44-16.9-12.19-21.82-3.75-2.38-8.35-3.66-13.31-3.7Z"/>
      <path class="cls-1" d="M161.86,129.99c-13.03,0-23.63-10.6-23.63-23.63V40.6C138.28,18.2,156.53,0,178.9,0h.03c10.85,0,21.06,4.25,28.74,11.95,7.68,7.7,11.91,17.91,11.9,28.76,0,1.18-.05,2.38-.16,3.57-.06.73.04,1.45.3,2.03.76,1.66,2.4,2.64,4.17,2.48,22.32-1.99,42.14,14.54,44.15,36.89h0c.97,10.82-2.33,21.37-9.3,29.71-6.94,8.33-16.74,13.46-27.58,14.43-1.18.11-2.39.16-3.58.16h-65.73ZM178.91,15.19c-14.02,0-25.46,11.41-25.5,25.43v65.74c0,4.66,3.79,8.45,8.45,8.45h65.72c.74,0,1.49-.04,2.23-.1,6.79-.61,12.93-3.82,17.28-9.04,4.37-5.23,6.44-11.85,5.84-18.63h0c-1.25-14-13.66-24.34-27.67-23.12-8.17.75-15.94-3.82-19.35-11.32-1.35-2.97-1.9-6.31-1.61-9.66.07-.75.1-1.5.1-2.23,0-6.8-2.65-13.2-7.47-18.02-4.82-4.83-11.22-7.49-18.01-7.49h-.02Z"/>
    </g>
  </g>
</svg>